<?xml version="1.0" encoding="utf-8"?>
<!-- Generator: Adobe Illustrator 27.5.0, SVG Export Plug-In . SVG Version: 6.00 Build 0)  -->
<svg version="1.1" id="Layer_1" xmlns="http://www.w3.org/2000/svg" xmlns:xlink="http://www.w3.org/1999/xlink" x="0px" y="0px"
	 viewBox="0 0 15 14" style="enable-background:new 0 0 15 14;" xml:space="preserve">
<style type="text/css">
	.st0{fill:#AE0000;}
</style>
<path class="st0" d="M7.2,13.3L7.2,13.3L7.2,13.3C7.1,13.3,7,13.2,7,13.1c-1.1-0.6-2.1-1.4-3-2.2C2.3,9.4,0.6,7.1,0.6,4.3
	c0-2.1,1.7-3.7,3.9-3.7C5,0.6,5.6,0.8,6.1,1c0.5,0.3,1,0.6,1.4,1.1C7.9,1.6,8.3,1.3,8.9,1c0.5-0.3,1.1-0.4,1.7-0.4
	c2.1,0,3.9,1.6,3.9,3.7c0,2.8-1.7,5-3.4,6.6c-0.9,0.9-1.9,1.6-3,2.2c-0.1,0.1-0.2,0.1-0.3,0.2l0,0l0,0l0,0c-0.1,0-0.2,0.1-0.2,0.1
	S7.3,13.4,7.2,13.3L7.2,13.3z"/>
</svg>
